PathFileType	4	(X/Y/Z)	D:\telocate\uwb01-Unnamed.trc
DataRate	CameraRate	NumFrames	NumMarkers	Units	OrigDataRate	OrigDataStartFrame	OrigNumFrames
100.00	100.00	      231	0	mm	100.00	3768	      7534
Frame#	Time	
		

3768	37.670	-1120.91772	-1370.28271	1227.03955	
3769	37.680	-1120.37659	-1376.91895	1226.89624	
3770	37.690	-1120.68469	-1382.44275	1226.58667	
3771	37.700	-1120.61572	-1389.31421	1226.12720	
3772	37.710	-1121.16943	-1395.74683	1225.67932	
3773	37.720	-1120.71667	-1401.74951	1225.63281	
3774	37.730	-1121.01074	-1407.35107	1224.99402	
3775	37.740	-1120.79077	-1414.61755	1224.83130	
3776	37.750	-1121.12439	-1419.85510	1224.34692	
3777	37.760	-1120.71045	-1426.21289	1224.34473	
3778	37.770	-1120.63757	-1431.72571	1223.82458	
3779	37.780	-1120.89880	-1437.12891	1223.76709	
3780	37.790	-1120.89990	-1443.13037	1224.01672	
3781	37.800	-1120.69836	-1448.57471	1224.04004	
3782	37.810	-1120.84705	-1453.99719	1224.13025	
3783	37.820	-1120.96313	-1458.57886	1223.94873	
3784	37.830	-1120.82739	-1463.90918	1223.78564	
3785	37.840	-1121.39575	-1469.62561	1224.83008	
3786	37.850	-1121.39563	-1473.55762	1224.79858	
3787	37.860	-1121.86877	-1479.26086	1225.78894	
3788	37.870	-1121.70667	-1483.47852	1225.95068	
3789	37.880	-1121.83789	-1488.53137	1226.78455	
3790	37.890	-1122.18652	-1492.85242	1227.81677	
3791	37.900	-1121.80762	-1496.29492	1228.25427	
3792	37.910	-1122.10291	-1501.21082	1229.71716	
3793	37.920	-1121.95972	-1504.49463	1230.18848	
3794	37.930	-1122.61182	-1508.45398	1231.55054	
3795	37.940	-1122.25024	-1511.89185	1232.52917	
3796	37.950	-1122.46985	-1515.91296	1233.32947	
3797	37.960	-1122.55225	-1520.41626	1234.35352	
3798	37.970	-1123.01611	-1522.93091	1235.30969	
3799	37.980	-1123.48462	-1527.49194	1236.23438	
3800	37.990	-1123.16797	-1532.02014	1236.50586	
3801	38.000	-1123.16797	-1536.38135	1236.47705	
3802	38.010	-1121.63708	-1541.30688	1236.96875	
3803	38.020	-1121.43994	-1546.52454	1237.48132	
3804	38.030	-1121.28943	-1550.97803	1237.10767	
3805	38.040	-1121.08264	-1557.07263	1237.87915	
3806	38.050	-1121.21094	-1561.60840	1237.66406	
3807	38.060	-1120.70752	-1567.31934	1237.66101	
3808	38.070	-1120.65930	-1573.11377	1237.65454	
3809	38.080	-1120.94507	-1578.52710	1238.03223	
3810	38.090	-1120.12805	-1584.25122	1238.01086	
3811	38.100	-1119.82800	-1589.34082	1238.05286	
3812	38.110	-1119.58777	-1594.36804	1238.11328	
3813	38.120	-1118.79565	-1599.82507	1238.04382	
3814	38.130	-1118.37524	-1605.72107	1238.32593	
3815	38.140	-1119.21387	-1610.48242	1238.80798	
3816	38.150	-1118.07300	-1615.14575	1238.55383	
3817	38.160	-1117.07568	-1621.31287	1239.08472	
3818	38.170	-1115.94189	-1625.75647	1238.87537	
3819	38.180	-1114.23962	-1631.64978	1239.25781	
3820	38.190	-1113.02979	-1637.15332	1239.16138	
3821	38.200	-1112.42517	-1642.19775	1239.12622	
3822	38.210	-1111.56250	-1647.72644	1239.44409	
3823	38.220	-1108.76770	-1653.39673	1239.23950	
3824	38.230	-1107.38098	-1658.65015	1239.44348	
3825	38.240	-1105.97852	-1663.59668	1239.35413	
3826	38.250	-1104.52429	-1669.21362	1239.39307	
3827	38.260	-1104.95996	-1674.44934	1239.60498	
3828	38.270	-1101.64392	-1679.86719	1239.56421	
3829	38.280	-1099.96594	-1685.92822	1239.56506	
3830	38.290	-1099.27344	-1691.41992	1239.71729	
3831	38.300	-1097.49060	-1697.28430	1239.27612	
3832	38.310	-1096.17700	-1703.39880	1239.37854	
3833	38.320	-1093.73450	-1709.28918	1238.70776	
3834	38.330	-1091.39685	-1715.72266	1238.86292	
3835	38.340	-1089.36792	-1721.51074	1238.55359	
3836	38.350	-1087.23291	-1727.36035	1238.35278	
3837	38.360	-1084.96411	-1733.79602	1238.46582	
3838	38.370	-1082.96655	-1739.42346	1238.44373	
3839	38.380	-1081.20544	-1744.74060	1238.59229	
3840	38.390	-1077.49988	-1749.62866	1238.32324	
3841	38.400	-1075.08447	-1755.17517	1238.32690	
3842	38.410	-1072.94287	-1760.33594	1238.46667	
3843	38.420	-1070.86121	-1765.31311	1238.93164	
3844	38.430	-1068.46594	-1770.63538	1238.79492	
3845	38.440	-1065.76636	-1776.03101	1239.08521	
3846	38.450	-1064.13599	-1781.43250	1238.94531	
3847	38.460	-1061.38757	-1786.08264	1238.49377	
3848	38.470	-1059.48975	-1792.50671	1238.44763	
3849	38.480	-1056.56848	-1797.43762	1238.69348	
3850	38.490	-1054.47522	-1803.38794	1238.19482	
3851	38.500	-1052.61926	-1809.17346	1238.51160	
3852	38.510	-1050.48730	-1814.44971	1238.53284	
3853	38.520	-1048.63684	-1820.03650	1238.19775	
3854	38.530	-1046.29224	-1825.34583	1238.32910	
3855	38.540	-1045.48083	-1831.46399	1238.51990	
3856	38.550	-1043.36584	-1837.07007	1238.25525	
3857	38.560	-1041.85901	-1842.55688	1238.48340	
3858	38.570	-1038.02563	-1849.02051	1238.34290	
3859	38.580	-1037.30054	-1854.70557	1238.46924	
3860	38.590	-1035.68726	-1859.91101	1238.28882	
3861	38.600	-1033.99084	-1865.99548	1238.32251	
3862	38.610	-1031.75745	-1871.04065	1238.20447	
3863	38.620	-1030.10559	-1876.33533	1238.42920	
3864	38.630	-1028.38831	-1881.86450	1238.53735	
3865	38.640	-1027.19714	-1887.31848	1238.33435	
3866	38.650	-1025.67188	-1893.21021	1238.90808	
3867	38.660	-1022.08551	-1898.65784	1238.75098	
3868	38.670	-1020.90375	-1903.87000	1238.61536	
3869	38.680	-1019.34070	-1910.13806	1238.54883	
3870	38.690	-1018.47583	-1915.69531	1238.79956	
3871	38.700	-1017.16315	-1921.59460	1238.50293	
3872	38.710	-1015.69666	-1927.62683	1238.47461	
3873	38.720	-1015.02185	-1933.18372	1238.66931	
3874	38.730	-1013.69489	-1938.95935	1238.77209	
3875	38.740	-1012.48468	-1944.44751	1238.57263	
3876	38.750	-1013.63336	-1949.43140	1239.36023	
3877	38.760	-1011.97485	-1954.51550	1239.75073	
3878	38.770	-1010.54266	-1961.32935	1238.60425	
3879	38.780	-1009.59357	-1966.75647	1238.57202	
3880	38.790	-1009.03778	-1972.09265	1239.12378	
3881	38.800	-1008.10126	-1977.98633	1239.27417	
3882	38.810	-1007.42725	-1982.92969	1239.01221	
3883	38.820	-1005.87219	-1987.81555	1239.04785	
3884	38.830	-1004.82532	-1992.90430	1239.36572	
3885	38.840	-1004.61444	-1997.88232	1239.99292	
3886	38.850	-1004.20496	-2002.53748	1240.28333	
3887	38.860	-1002.97797	-2008.15063	1240.12732	
3888	38.870	-1001.86523	-2013.65186	1240.20959	
3889	38.880	-1001.52539	-2018.73132	1240.28418	
3890	38.890	-1001.01440	-2023.73022	1240.33643	
3891	38.900	-1001.19830	-2028.33020	1241.00745	
3892	38.910	-1000.69214	-2033.38477	1241.19556	
3893	38.920	-998.70978	-2039.60828	1240.98157	
3894	38.930	-997.93372	-2044.51917	1240.90674	
3895	38.940	-998.29382	-2048.49878	1241.23596	
3896	38.950	-997.83679	-2053.87744	1242.07410	
3897	38.960	-996.79041	-2059.03979	1242.05737	
3898	38.970	-995.52582	-2064.64160	1241.96851	
3899	38.980	-994.50916	-2070.19629	1242.26367	
3900	38.990	-989.88361	-2076.56274	1241.46863	
3901	39.000	-990.93536	-2080.87744	1242.22009	
3902	39.010	-989.02222	-2086.24487	1241.88123	
3903	39.020	-987.38916	-2091.79663	1241.81860	
3904	39.030	-985.28943	-2097.48730	1241.79309	
3905	39.040	-982.57764	-2104.14502	1241.42090	
3906	39.050	-980.81775	-2109.87817	1241.03931	
3907	39.060	-979.65051	-2114.53564	1241.43567	
3908	39.070	-978.09857	-2120.30688	1241.77307	
3909	39.080	-974.28876	-2126.22778	1241.04553	
3910	39.090	-971.10443	-2132.30688	1240.41577	
3911	39.100	-968.89941	-2138.87329	1240.47949	
3912	39.110	-967.93933	-2142.77466	1241.02930	
3913	39.120	-965.63293	-2148.34448	1240.76880	
3914	39.130	-962.34113	-2154.80542	1239.57788	
3915	39.140	-962.26257	-2158.92627	1240.45386	
3916	39.150	-958.09625	-2165.33887	1239.88977	
3917	39.160	-956.01465	-2169.92456	1239.94373	
3918	39.170	-952.76483	-2175.19629	1239.94153	
3919	39.180	-950.22705	-2180.07227	1239.94714	
3920	39.190	-946.82275	-2184.99219	1238.97388	
3921	39.200	-944.82977	-2189.49341	1239.55029	
3922	39.210	-941.70074	-2193.30688	1239.45020	
3923	39.220	-940.55231	-2197.70923	1239.74963	
3924	39.230	-938.30396	-2202.30249	1239.74756	
3925	39.240	-932.16449	-2208.11353	1238.74976	
3926	39.250	-929.87488	-2211.54443	1239.06689	
3927	39.260	-928.61890	-2216.01831	1239.07886	
3928	39.270	-924.60425	-2220.86548	1238.65405	
3929	39.280	-921.43634	-2224.90845	1238.37097	
3930	39.290	-919.00140	-2228.87476	1238.41821	
3931	39.300	-916.20123	-2233.24365	1238.43030	
3932	39.310	-911.51501	-2237.80786	1238.33533	
3933	39.320	-907.06476	-2242.50098	1237.11365	
3934	39.330	-903.99561	-2246.09497	1237.44958	
3935	39.340	-901.47772	-2249.10376	1237.85925	
3936	39.350	-900.08752	-2252.05811	1238.13257	
3937	39.360	-895.20129	-2256.87573	1237.38257	
3938	39.370	-891.57037	-2260.59253	1237.59644	
3939	39.380	-888.66125	-2262.74048	1237.61853	
3940	39.390	-884.73639	-2267.24414	1237.28577	
3941	39.400	-882.02429	-2269.77222	1237.67505	
3942	39.410	-879.78516	-2272.07397	1238.28003	
3943	39.420	-876.45270	-2275.12671	1237.91394	
3944	39.430	-873.22882	-2278.08374	1237.63904	
3945	39.440	-870.93329	-2280.10278	1238.64294	
3946	39.450	-865.23303	-2283.42285	1238.11255	
3947	39.460	-864.09735	-2284.30591	1238.50598	
3948	39.470	-860.76355	-2286.35522	1238.09961	
3949	39.480	-856.17572	-2289.61670	1237.93982	
3950	39.490	-852.95178	-2291.84351	1238.08057	
3951	39.500	-851.39154	-2293.42017	1239.12549	
3952	39.510	-844.80322	-2296.05981	1237.65845	
3953	39.520	-842.11914	-2298.39673	1238.24304	
3954	39.530	-839.93079	-2299.39087	1239.02563	
3955	39.540	-837.01160	-2300.60693	1239.02368	
3956	39.550	-833.50409	-2302.65625	1239.58105	
3957	39.560	-831.64783	-2303.73901	1238.99121	
3958	39.570	-827.34601	-2305.65186	1239.53882	
3959	39.580	-823.89447	-2307.23657	1239.75854	
3960	39.590	-819.73462	-2308.07153	1239.48291	
3961	39.600	-815.97290	-2309.70605	1239.48389	
3962	39.610	-812.31873	-2310.21777	1239.37231	
3963	39.620	-807.87079	-2311.74561	1239.33325	
3964	39.630	-804.07611	-2312.68262	1239.63245	
3965	39.640	-800.05170	-2313.56006	1239.26904	
3966	39.650	-796.33270	-2314.26636	1239.34082	
3967	39.660	-792.12958	-2314.48242	1239.02356	
3968	39.670	-789.92975	-2314.51538	1239.65686	
3969	39.680	-785.54297	-2314.56055	1239.08618	
3970	39.690	-782.36700	-2313.75195	1239.81055	
3971	39.700	-775.91132	-2315.77856	1239.43335	
3972	39.710	-771.14978	-2315.65186	1238.50305	
3973	39.720	-768.23950	-2314.29858	1238.95422	
3974	39.730	-764.34375	-2314.03882	1239.27100	
3975	39.740	-761.28864	-2313.78125	1239.57996	
3976	39.750	-755.79993	-2313.19043	1239.42346	
3977	39.760	-751.59216	-2312.93188	1238.94910	
3978	39.770	-746.84100	-2312.46118	1238.97034	
3979	39.780	-741.87347	-2312.94702	1238.42163	
3980	39.790	-738.58551	-2312.22754	1239.13965	
3981	39.800	-735.14020	-2312.22412	1239.70349	
3982	39.810	-730.30750	-2311.64136	1238.58020	
3983	39.820	-723.78320	-2311.88208	1237.70447	
3984	39.830	-720.78223	-2310.91016	1237.62610	
3985	39.840	-715.85083	-2310.77490	1237.49548	
3986	39.850	-711.34668	-2310.72437	1237.63416	
3987	39.860	-707.76257	-2310.06055	1237.51746	
3988	39.870	-700.84204	-2310.44653	1236.54724	
3989	39.880	-696.48309	-2309.62964	1236.51282	
3990	39.890	-690.77789	-2310.65039	1235.67627	
3991	39.900	-686.47333	-2310.11401	1235.84314	
3992	39.910	-681.64716	-2309.69141	1235.88684	
3993	39.920	-676.81653	-2309.20410	1235.79480	
3994	39.930	-671.78180	-2308.63013	1235.37573	
3995	39.940	-668.47845	-2306.03052	1235.79114	
3996	39.950	-664.17102	-2305.37158	1235.55957	
3997	39.960	-660.46466	-2304.47681	1236.13135	
3998	39.970	-651.63519	-2305.26587	1234.49561	
